<?xml version="1.0" encoding="UTF-8"?>
<svg id="Camada_1" data-name="Camada 1" xmlns="http://www.w3.org/2000/svg" viewBox="0 0 727.77 421.48">
  <defs>
    <style>
      .cls-1 {
        fill: #fff;
      }
    </style>
  </defs>
  <path class="cls-1" d="m184.07,336.71h2.01c1.02,0,12.71-37.68,14.93-44.36,0,0,0-.01,0-.02,20.45-61.34-51.66-80.38,29.86-208.08-72,143.02,5.68,128.5-7.01,208.09,0,0,0,0,0,0,13.08,0,25.63.01,25.91.01,43.97,0,79.61-35.64,79.61-79.61,0-49.47-64.14-149.65-69.54-160.41-4.57-7.49-8.67-10.6-15.37-19.53C230.8,14.55,211.69,5.06,206.82,0c12.99,25.02,17.39,69.84,1.2,98.68-76.6,136.45,20.92,141.19-36.25,238.03,1.78.08,11.28,0,14.27,0h-1.97Z"/>
  <path class="cls-1" d="m681.61,280.92c-17.32,10.61-39.01,14.79-61.75,9.22-26.99-6.61-48.63-27.13-56.25-53.86-15.41-54.06,24.77-103.16,76.41-103.16,22.01,0,41.95,8.92,56.37,23.35,0,0,.02,0,.02,0l11.73-11.73c11.41-11.41,8.94-30.47-4.95-38.7-18.79-11.14-40.78-17.46-64.26-17.26-67.1.57-122.06,55.2-123.01,122.3-.98,69.36,54.95,125.89,124.08,125.89,34.26,0,65.28-13.88,87.74-36.34,0,0,0-.02,0-.02l-15.87-15.87c-8.04-8.04-20.59-9.75-30.28-3.82"/>
  <path class="cls-1" d="m260.34,48.64C241.48,19.31,206.82,0,206.82,0c4.87,5.06,49.47,25.95,72.09,96.92,15.01,47.1,50.49,71.85,50.49,115.82s-35.64,79.62-79.61,79.62c-.46,0-34.2-.02-48.76-.03-1.26,3.88-2.7,8.43-4,12.48-2.2,6.88-9.92,31.9-10.94,31.9h-2.01,65.71c68.47,0,123.97-55.5,123.97-123.97s-84.12-118.56-113.41-164.1"/>
  <path class="cls-1" d="m525.66,133.3v-19.89c0-13.61-11.03-24.63-24.63-24.63h-118.08v248.2h44.53v-.25h98.18v-19.89c0-13.61-11.03-24.63-24.63-24.63h-73.55v-57.05h64.46v-19.89c0-13.61-11.03-24.63-24.63-24.63h-39.83v-57.3h98.18Z"/>
  <path class="cls-1" d="m211.65,91.11l1.54-2.34h-40.98c-8.44,0-16.3,4.3-20.84,11.41L0,336.71h37.14c10.43,0,19.73-6.56,23.23-16.38l101.83-154.29v170.67h9.58,0c57.17-96.84-40.34-101.58,36.25-238.03,1.36-2.41,2.56-4.95,3.63-7.57"/>
  <path class="cls-1" d="m307.55,123.19c8.53,5.99,16.21,13.29,22.98,21.42,6.75,8.15,12.54,17.22,17.09,26.97,4.54,9.75,7.8,20.22,9.42,31.05l.32,2.03.16,1.02.08,1.03.33,4.11.16,2.06c.04.69.03,1.38.04,2.06l.04,4.14c.06,1.38-.09,2.76-.18,4.14l-.29,4.14c-.12,1.38-.37,2.74-.55,4.12-.21,1.37-.37,2.75-.63,4.11l-.94,4.06c-.34,1.35-.58,2.72-1.04,4.03l-1.25,3.97-.63,1.98-.78,1.93c-1.08,2.56-2.05,5.16-3.39,7.59l-1.89,3.7c-.62,1.24-1.42,2.37-2.14,3.55-5.82,9.4-13.26,17.65-21.65,24.47-8.4,6.83-17.66,12.33-27.32,16.64-9.72,4.18-19.78,7.26-30,9.24,9.23-4.87,18.24-9.74,26.72-15.28,8.41-5.62,16.29-11.82,23.23-18.77,6.93-6.95,12.94-14.63,17.57-23.02l.87-1.57c.29-.52.61-1.03.84-1.58l1.52-3.24c1.1-2.12,1.84-4.39,2.7-6.61l.65-1.66.51-1.71,1.04-3.41c.39-1.12.57-2.31.85-3.46l.78-3.48c3.58-18.75,1.18-38.56-5.31-57.2-3.23-9.35-7.49-18.44-12.54-27.19-5.04-8.78-10.93-17.15-17.37-25.34"/>
  <rect class="cls-1" x=".07" y="362.9" width="4.18" height="57.55"/>
  <path class="cls-1" d="m65.66,417.55c-3.07,1.19-9.91,3.5-19.3,3.5-8.8,0-16.57-2.22-22.97-8.2-5.12-4.78-8.37-12.55-8.37-21.26,0-13.49,10.25-29.29,33.39-29.29,7.17,0,12.98,1.79,15.37,2.9l-1.37,3.41c-3.5-1.62-7.94-2.82-14.18-2.82-18.87,0-28.86,11.7-28.86,25.96s10.16,25.79,27.75,25.79c7.09,0,11.7-1.03,14.35-2.39v-19.72h-14.86v-3.41h19.04v25.53Z"/>
  <path class="cls-1" d="m78.56,363.66c3.93-.77,9.56-1.28,14-1.28,8.2,0,13.32,1.71,16.82,5.12,2.48,2.31,4.1,6.15,4.1,10.08,0,7.6-4.87,12.81-11.87,14.94v.17c4.7,1.62,7.77,5.98,9.14,11.7,2.14,9.05,3.33,13.58,4.7,16.05h-4.44c-.94-1.62-2.22-6.66-3.84-13.83-1.88-8.29-5.64-12.13-13.49-12.55h-10.93v26.39h-4.18v-56.79Zm4.18,26.99h11.1c9.48,0,15.46-4.95,15.46-12.38,0-9.22-7.6-12.47-16.82-12.47-4.7,0-8.11.51-9.74.94v23.91Z"/>
  <polygon class="cls-1" points="155.24 391.84 129.63 391.84 129.63 416.95 158.15 416.95 158.15 420.45 125.44 420.45 125.44 362.9 156.7 362.9 156.7 366.4 129.63 366.4 129.63 388.34 155.24 388.34 155.24 391.84"/>
  <path class="cls-1" d="m184.54,362.9h4.18v38.77c0,16.05-8.54,19.81-16.74,19.81-3.07,0-6.66-.85-8.2-1.62l1.02-3.42c1.62.77,4.1,1.45,7.17,1.45,7.94,0,12.55-3.76,12.55-17.33v-37.66Z"/>
  <path class="cls-1" d="m210.41,400.21l-7.94,20.24h-4.35l23.23-57.55h4.1l23.06,57.55h-4.36l-8.11-20.24h-25.62Zm24.25-3.5l-8.11-20.24c-1.54-3.84-2.31-6.32-3.16-9.14h-.17c-.85,2.91-1.79,5.47-3.16,8.88l-8.2,20.49h22.8Z"/>
  <polygon class="cls-1" points="315.71 397.65 292.31 397.65 292.31 407.47 318.44 407.47 318.44 420.45 276.17 420.45 276.17 362.9 317.16 362.9 317.16 375.88 292.31 375.88 292.31 384.67 315.71 384.67 315.71 397.65"/>
  <path class="cls-1" d="m380.44,399.02c-.17-7.17-.26-15.11-.26-25.1h-.26c-2.05,8.2-4.78,17.25-7,24.51l-6.23,20.83h-12.89l-5.12-20.75c-1.71-7.09-3.59-16.05-5.12-24.59h-.17c-.34,8.79-.6,17.93-.85,25.1l-.85,21.43h-15.2l3.25-57.55h23.06l3.84,14.52c1.62,6.15,3.42,14.09,4.7,21.35h.34c1.88-7.26,4.01-15.8,5.81-21.52l4.52-14.35h22.46l2.65,57.55h-16.05l-.6-21.43Z"/>
  <path class="cls-1" d="m473.02,418.74c-2.39,1.2-8.54,2.73-16.4,2.73-23.31,0-33.73-13.41-33.73-28.86,0-19.98,15.71-30.74,34.58-30.74,7.43,0,13.66,1.37,16.48,2.9l-3.33,12.47c-2.9-1.19-7.17-2.39-12.55-2.39-9.65,0-18.19,5.21-18.19,16.65,0,9.91,6.74,16.82,18.62,16.82,4.44,0,9.31-.85,12.04-1.96l2.48,12.38Z"/>
  <path class="cls-1" d="m482.16,363.67c4.53-.68,11.62-1.28,20.32-1.28,9.65,0,16.05,1.37,20.49,4.52,3.67,2.65,5.98,6.83,5.98,12.64,0,7.69-6.23,12.55-10.25,13.83v.34c3.84,1.62,5.98,5.38,7.6,10.16,1.96,5.89,3.93,14.35,5.04,16.57h-16.4c-.94-1.71-2.48-5.72-4.44-13.15-1.79-6.92-4.1-8.28-9.48-8.28h-2.9v21.43h-15.97v-56.79Zm15.97,23.99h4.78c6.32,0,10.08-2.56,10.08-6.92s-3.25-6.58-8.71-6.58c-3.59,0-5.29.17-6.15.34v13.15Z"/>
  <rect class="cls-1" x="538.27" y="362.9" width="16.14" height="57.55"/>
  <path class="cls-1" d="m567.13,404.4c3.84,1.88,9.99,4.01,16.57,4.01,5.38,0,8.11-1.71,8.11-4.61,0-2.48-2.65-4.1-9.65-6.06-9.82-2.73-17.93-7.77-17.93-17.76s9.39-18.1,24.34-18.1c7.86,0,13.15,1.37,17.59,3.25l-3.67,12.64c-2.73-1.11-7.6-2.99-14.18-2.99-4.78,0-7.52,1.54-7.52,4.01,0,3.07,3.67,4.1,11.19,6.49,11.18,3.59,16.48,8.96,16.48,17.68,0,9.65-7.6,18.53-25.96,18.53-7.6,0-15.03-2.05-18.7-3.93l3.33-13.15Z"/>
  <polygon class="cls-1" points="630.41 376.05 614.19 376.05 614.19 362.9 663.12 362.9 663.12 376.05 646.55 376.05 646.55 420.45 630.41 420.45 630.41 376.05"/>
  <path class="cls-1" d="m727.77,391.33c0,17.42-12.21,30.14-32.02,30.14s-30.48-12.72-30.48-29.29c0-17.59,12.64-30.31,31.51-30.31s31,12.55,31,29.46m-45.34.43c0,9.91,5.47,17.25,14.18,17.25s14-7.34,14-17.25-5.46-17.42-14.09-17.42-14.09,7.51-14.09,17.42"/>
</svg>